<?xml version="1.0" encoding="UTF-8"?>
<svg xmlns="http://www.w3.org/2000/svg"
     viewBox="0 0 2754 1536">

<!--
  Nakładanie na obrazek:

  <div style="position:relative">
    <img src="twoj-obraz.png" style="width:100%">
    <svg viewBox="0 0 2754 1536"
         style="position:absolute;top:0;left:0;width:100%;height:100%">
      ...wklej polygony...
    </svg>
  </div>
-->

  <polygon
    id="mieszkanie-a1"
    points="994,321 996,614 560,615 565,327"
    fill="#e879f9"
    fill-opacity="0.3"
    stroke="#e879f9"
    stroke-width="3"
    stroke-linejoin="round"
  />

  <polygon
    id="mieszkanie-a2"
    points="859,626 865,893 560,893 558,630"
    fill="#e879f9"
    fill-opacity="0.3"
    stroke="#e879f9"
    stroke-width="3"
    stroke-linejoin="round"
  />

  <polygon
    id="mieszkanie-a3"
    points="948,1240 561,1240 563,910 857,910 946,988"
    fill="#e879f9"
    fill-opacity="0.3"
    stroke="#e879f9"
    stroke-width="3"
    stroke-linejoin="round"
  />

  <polygon
    id="mieszkanie-a4"
    points="1235,991 1235,1242 965,1244 966,995"
    fill="#e879f9"
    fill-opacity="0.3"
    stroke="#e879f9"
    stroke-width="3"
    stroke-linejoin="round"
  />

  <polygon
    id="mieszkanie-a5"
    points="1395,995 1253,993 1257,1244 1401,1244"
    fill="#e879f9"
    fill-opacity="0.3"
    stroke="#e879f9"
    stroke-width="3"
    stroke-linejoin="round"
  />

  <polygon
    id="mieszkanie-a6"
    points="1419,294 1010,294 1010,610 1037,612 1126,741 1410,741"
    fill="#e879f9"
    fill-opacity="0.3"
    stroke="#e879f9"
    stroke-width="3"
    stroke-linejoin="round"
  />

  <polygon
    id="mieszkanie-a7"
    points="1166,759 1170,975 963,977 879,904 879,630 1035,632 1119,763"
    fill="#e879f9"
    fill-opacity="0.3"
    stroke="#e879f9"
    stroke-width="3"
    stroke-linejoin="round"
  />

  <polygon
    id="mieszkanie-a8"
    points="1415,149 1417,241 983,243 983,149"
    fill="#e879f9"
    fill-opacity="0.3"
    stroke="#e879f9"
    stroke-width="3"
    stroke-linejoin="round"
  />

  <polygon
    id="mieszkanie-a9"
    points="1397,757 1401,966 1174,964 1170,757"
    fill="#e879f9"
    fill-opacity="0.3"
    stroke="#e879f9"
    stroke-width="3"
    stroke-linejoin="round"
  />

</svg>